<?xml version="1.0" encoding="UTF-8"?><svg xmlns="http://www.w3.org/2000/svg" xmlns:xlink="http://www.w3.org/1999/xlink" contentScriptType="text/ecmascript" width="224.87999" zoomAndPan="magnify" contentStyleType="text/css" viewBox="0 0 224.87999 225" height="225" preserveAspectRatio="xMidYMid meet" version="1.0"><defs><clipPath id="clip-0"><path d="M 32.097656 22 L 196 22 L 196 203 L 32.097656 203 Z M 32.097656 22 " clip-rule="nonzero"/></clipPath><clipPath id="clip-1"><path d="M 32.316406 21.378906 L 200 21.378906 L 200 212.042969 L 32.316406 212.042969 Z M 32.316406 21.378906 " clip-rule="nonzero"/></clipPath><clipPath id="clip-2"><path d="M 141.855469 34.085938 L 202.054688 34.085938 L 202.054688 155 L 141.855469 155 Z M 141.855469 34.085938 " clip-rule="nonzero"/></clipPath></defs><path fill="rgb(0%, 0%, 0%)" d="M 164.988281 13.195312 C 151.804688 13.722656 147.9375 19.339844 147.671875 22.066406 C 147.410156 24.785156 156.902344 44.015625 156.902344 44.015625 L 169.90625 43.226562 C 169.90625 43.226562 172.367188 38.308594 175.09375 32.6875 C 177.816406 27.070312 178.167969 12.667969 164.988281 13.195312 Z M 111.128906 88.269531 L 100.28125 46.121094 C 99.882812 44.574219 98.488281 43.488281 96.882812 43.480469 L 38.964844 43.328125 C 36.601562 43.320312 34.90625 45.589844 35.582031 47.851562 L 48.238281 90.15625 C 48.683594 91.644531 50.050781 92.664062 51.609375 92.664062 L 107.71875 92.664062 C 110.019531 92.664062 111.699219 90.496094 111.128906 88.269531 Z M 135.589844 205.148438 L 126.976562 209.785156 C 127.003906 210.328125 127.023438 210.863281 127.023438 211.382812 L 99.078125 211.382812 C 99.078125 211.382812 102.59375 206.117188 109.800781 206.117188 C 117.003906 206.117188 116.476562 201.199219 116.476562 201.199219 L 125.40625 198.300781 C 125.40625 198.300781 125.757812 198.746094 125.917969 199.425781 L 131.769531 197.378906 C 131.769531 197.378906 134.667969 200.539062 135.589844 205.148438 " fill-opacity="1" fill-rule="nonzero"/><g clip-path="url(#clip-0)"><path fill="rgb(100%, 100%, 100%)" d="M 136.691406 110.402344 L 99.78125 110.402344 L 99.78125 109.171875 L 84.96875 109.171875 C 81.550781 109.171875 79.082031 105.910156 80.007812 102.625 L 82.839844 92.574219 L 107.457031 92.574219 C 109.730469 92.574219 111.398438 90.429688 110.828125 88.230469 L 109.355469 82.5 L 46.351562 82.5 L 48.621094 90.09375 C 49.0625 91.566406 50.417969 92.574219 51.957031 92.574219 L 63.460938 92.574219 L 60.476562 103.640625 C 59.558594 107.046875 62.128906 110.402344 65.664062 110.402344 L 32.660156 110.402344 L 32.660156 125.15625 L 136.691406 125.15625 Z M 195.039062 125.855469 L 159.011719 120.941406 C 159.011719 120.941406 117.707031 131.652344 107.691406 133.933594 C 97.671875 136.21875 92.046875 143.242188 95.914062 156.238281 C 99.78125 169.234375 111.378906 202.605469 111.378906 202.605469 L 125.53125 198.472656 L 126.035156 199.625 L 135.457031 196.457031 L 126.183594 152.550781 C 131.566406 152.550781 139.542969 152.550781 151.277344 152.550781 C 182.5625 152.550781 195.304688 156.941406 195.039062 125.855469 Z M 91.855469 65.972656 C 90.992188 63.992188 90.027344 62.085938 89.015625 60.261719 L 91.871094 66.058594 C 91.871094 66.058594 91.863281 66.023438 91.855469 65.972656 Z M 75.175781 41.820312 L 101.363281 41.820312 C 101.363281 41.820312 108.613281 45.152344 113.84375 55.429688 C 119.113281 65.792969 121.574219 78.261719 121.574219 78.261719 L 95.472656 78.261719 C 95.398438 77.71875 95.304688 77.179688 95.207031 76.640625 L 91.167969 81.511719 C 91.167969 81.511719 90.640625 80.984375 86.511719 74.222656 C 82.445312 67.570312 88.675781 60.242188 88.875 60.007812 C 82.875 49.332031 75.175781 41.820312 75.175781 41.820312 Z M 146.746094 39.914062 L 144.421875 39.976562 L 146.929688 36.355469 L 147.671875 22.066406 L 153.210938 24.609375 C 153.210938 24.609375 153.035156 31.109375 157.957031 33.65625 L 159.539062 28.648438 C 159.539062 28.648438 163.929688 28.121094 163.757812 32.164062 C 163.71875 33.027344 163.503906 33.804688 163.1875 34.492188 C 161.246094 38.71875 164.285156 43.660156 168.933594 43.351562 C 169.253906 43.332031 169.578125 43.289062 169.90625 43.226562 L 170.347656 49.550781 L 158.921875 51.832031 L 159.011719 47.351562 L 155.230469 48.84375 C 150.953125 50.53125 146.363281 47.234375 146.601562 42.644531 L 146.746094 39.914062 " fill-opacity="1" fill-rule="nonzero"/></g><path fill="rgb(33.329773%, 2.749634%, 63.529968%)" d="M 151.804688 122.824219 L 145.476562 83.707031 C 145.476562 83.707031 125.617188 102.5 120.871094 106.714844 C 116.125 110.929688 109.621094 111.808594 104.527344 105.132812 C 99.429688 98.457031 86.597656 78.789062 86.597656 78.789062 L 97.144531 74.398438 L 112.257812 93.71875 C 112.257812 93.71875 134.40625 70.886719 140.03125 65.441406 C 145.652344 60 156.375 55.957031 156.375 55.957031 L 157.253906 51.394531 L 170.789062 45.421875 L 172.71875 52.445312 C 172.71875 52.445312 181.507812 57.539062 185.375 59.820312 C 189.242188 62.105469 190.296875 67.023438 191.175781 73.871094 C 192.054688 80.722656 196.269531 118.128906 196.796875 125.328125 C 197.324219 132.53125 177.640625 143.769531 155.847656 122.167969 L 151.804688 122.824219 " fill-opacity="1" fill-rule="nonzero"/><g clip-path="url(#clip-1)"><path fill="rgb(0%, 0%, 0%)" d="M 88.460938 59.972656 C 87.464844 61.226562 82.386719 68.125 86.21875 74.402344 C 86.800781 75.351562 87.304688 76.066406 87.75 76.699219 C 88.058594 77.132812 88.339844 77.527344 88.589844 77.925781 C 88.65625 78.027344 88.765625 78.085938 88.878906 78.085938 C 88.941406 78.085938 89.003906 78.070312 89.0625 78.035156 C 89.222656 77.933594 89.273438 77.722656 89.171875 77.5625 C 88.914062 77.152344 88.628906 76.75 88.3125 76.300781 C 87.871094 75.679688 87.371094 74.972656 86.804688 74.046875 C 83.390625 68.460938 87.570312 62.265625 88.816406 60.632812 L 91.5625 66.207031 C 91.640625 66.363281 91.816406 66.4375 91.976562 66.382812 C 92.140625 66.328125 92.238281 66.164062 92.210938 65.996094 C 92.203125 65.960938 91.585938 62.535156 91.058594 60.527344 C 90.867188 59.785156 91.015625 59.367188 91.242188 59.285156 C 91.515625 59.191406 91.980469 59.457031 92.265625 60.054688 C 92.6875 60.957031 92.769531 61.109375 93.304688 62.101562 C 93.664062 62.773438 94.234375 63.835938 95.257812 65.777344 C 97.683594 70.371094 95.019531 74.777344 94.992188 74.820312 C 94.890625 74.984375 94.941406 75.191406 95.101562 75.292969 C 95.261719 75.394531 95.472656 75.34375 95.574219 75.183594 C 95.691406 74.988281 98.476562 70.40625 95.867188 65.457031 C 94.839844 63.511719 94.269531 62.449219 93.90625 61.777344 C 93.371094 60.777344 93.300781 60.648438 92.886719 59.765625 C 92.410156 58.753906 91.578125 58.433594 91.011719 58.640625 C 90.503906 58.824219 90.074219 59.464844 90.398438 60.699219 C 90.59375 61.445312 90.800781 62.386719 90.984375 63.277344 C 90.445312 62.179688 89.878906 61.105469 89.296875 60.0625 L 89.191406 59.847656 C 89.179688 59.824219 89.160156 59.8125 89.148438 59.792969 C 84.128906 50.890625 77.898438 44.136719 75.992188 42.164062 L 101.285156 42.164062 C 102.011719 42.527344 108.679688 46.042969 113.535156 55.585938 C 118.191406 64.742188 120.675781 75.6875 121.152344 77.921875 L 100.3125 77.921875 C 100.121094 77.921875 99.96875 78.074219 99.96875 78.261719 C 99.96875 78.453125 100.121094 78.605469 100.3125 78.605469 L 121.574219 78.605469 C 121.675781 78.605469 121.773438 78.558594 121.839844 78.480469 C 121.90625 78.402344 121.929688 78.296875 121.910156 78.199219 C 121.886719 78.074219 119.378906 65.5625 114.148438 55.277344 C 108.921875 45.011719 101.808594 41.648438 101.503906 41.507812 C 101.460938 41.488281 101.414062 41.480469 101.363281 41.480469 L 75.175781 41.480469 C 75.035156 41.480469 74.910156 41.5625 74.855469 41.691406 C 74.804688 41.820312 74.835938 41.96875 74.933594 42.066406 C 75.019531 42.148438 82.5625 49.5625 88.460938 59.972656 Z M 110.480469 91.4375 C 111.210938 90.5 111.460938 89.296875 111.160156 88.144531 L 109.6875 82.414062 C 109.640625 82.230469 109.457031 82.121094 109.269531 82.167969 C 109.085938 82.214844 108.976562 82.402344 109.023438 82.585938 L 110.496094 88.316406 C 110.742188 89.261719 110.539062 90.246094 109.9375 91.019531 Z M 195.542969 200.328125 L 180.117188 152.828125 C 180.074219 152.691406 180.117188 152.550781 180.21875 152.460938 C 175.546875 153.21875 169.714844 153.15625 162.605469 153.03125 C 162.753906 153.101562 162.835938 153.265625 162.789062 153.425781 L 149.089844 200.328125 L 170.972656 200.328125 L 170.972656 154.304688 C 170.972656 154.117188 171.125 153.964844 171.3125 153.964844 C 171.503906 153.964844 171.65625 154.117188 171.65625 154.304688 L 171.65625 200.328125 Z M 125.703125 152.894531 L 115.863281 152.894531 L 127.355469 197.953125 C 127.402344 198.132812 127.296875 198.3125 127.121094 198.363281 L 126.09375 198.664062 L 126.332031 199.199219 L 135.058594 196.230469 Z M 70.949219 110.753906 L 70.949219 124.8125 L 136.347656 124.8125 L 136.347656 110.742188 L 70.945312 110.742188 C 70.945312 110.746094 70.949219 110.75 70.949219 110.753906 Z M 70.261719 124.8125 L 70.261719 110.753906 C 70.261719 110.75 70.265625 110.746094 70.265625 110.742188 L 33.003906 110.742188 L 33.003906 124.8125 Z M 65.664062 110.058594 L 99.4375 110.058594 L 99.4375 109.515625 L 84.96875 109.515625 C 83.230469 109.515625 81.636719 108.722656 80.585938 107.339844 C 79.539062 105.953125 79.207031 104.203125 79.675781 102.535156 L 82.386719 92.917969 L 63.800781 92.917969 L 60.808594 103.730469 C 60.398438 105.25 60.710938 106.839844 61.671875 108.089844 C 62.632812 109.339844 64.085938 110.058594 65.664062 110.058594 Z M 199.628906 211.796875 C 199.59375 211.808594 199.558594 211.816406 199.523438 211.816406 C 199.378906 211.816406 199.242188 211.722656 199.195312 211.578125 L 195.765625 201.011719 L 171.65625 201.011719 L 171.65625 211.734375 C 171.65625 211.925781 171.503906 212.078125 171.3125 212.078125 C 171.125 212.078125 170.972656 211.925781 170.972656 211.734375 L 170.972656 201.011719 L 148.890625 201.011719 L 145.804688 211.566406 C 145.761719 211.71875 145.625 211.816406 145.476562 211.816406 C 145.445312 211.816406 145.414062 211.808594 145.382812 211.800781 C 145.199219 211.746094 145.09375 211.558594 145.148438 211.375 L 148.210938 200.894531 C 148.15625 200.835938 148.121094 200.757812 148.121094 200.671875 C 148.121094 200.515625 148.226562 200.390625 148.371094 200.347656 L 162.132812 153.238281 C 162.160156 153.136719 162.230469 153.066406 162.316406 153.023438 C 162.074219 153.019531 161.835938 153.015625 161.589844 153.011719 C 158.335938 152.953125 154.96875 152.894531 151.277344 152.894531 L 137.03125 152.894531 L 137.03125 211.472656 C 137.03125 211.660156 136.878906 211.816406 136.691406 211.816406 C 136.5 211.816406 136.347656 211.660156 136.347656 211.472656 L 136.347656 152.894531 L 126.40625 152.894531 L 135.792969 196.382812 C 135.832031 196.554688 135.734375 196.726562 135.570312 196.78125 L 126.257812 199.953125 C 126.222656 199.964844 126.183594 199.96875 126.148438 199.96875 C 126.015625 199.96875 125.890625 199.894531 125.832031 199.765625 L 125.433594 198.859375 L 111.476562 202.933594 C 111.445312 202.941406 111.414062 202.945312 111.378906 202.945312 C 111.238281 202.945312 111.105469 202.855469 111.058594 202.714844 C 110.941406 202.382812 99.410156 169.191406 95.585938 156.335938 C 93.726562 150.082031 93.953125 144.910156 96.257812 140.964844 C 98.398438 137.308594 102.21875 134.832031 107.613281 133.601562 C 112.746094 132.429688 125.351562 129.277344 136.347656 126.5 L 136.347656 125.496094 L 70.949219 125.496094 L 70.949219 211.472656 C 70.949219 211.660156 70.792969 211.816406 70.605469 211.816406 C 70.417969 211.816406 70.261719 211.660156 70.261719 211.472656 L 70.261719 125.496094 L 33.003906 125.496094 L 33.003906 211.472656 C 33.003906 211.660156 32.847656 211.816406 32.660156 211.816406 C 32.472656 211.816406 32.316406 211.660156 32.316406 211.472656 L 32.316406 110.402344 C 32.316406 110.210938 32.472656 110.058594 32.660156 110.058594 L 62.957031 110.058594 C 62.257812 109.683594 61.632812 109.160156 61.128906 108.507812 C 60.039062 107.085938 59.679688 105.277344 60.148438 103.550781 L 63.085938 92.917969 L 51.957031 92.917969 C 50.28125 92.917969 48.773438 91.796875 48.292969 90.191406 L 46.023438 82.597656 C 45.96875 82.417969 46.070312 82.226562 46.253906 82.171875 C 46.433594 82.117188 46.625 82.222656 46.679688 82.402344 L 48.949219 89.996094 C 49.34375 91.3125 50.582031 92.234375 51.957031 92.234375 L 95.457031 92.234375 L 95.96875 92.917969 L 83.097656 92.917969 L 80.335938 102.71875 C 79.925781 104.179688 80.214844 105.714844 81.132812 106.925781 C 82.050781 108.136719 83.449219 108.828125 84.96875 108.828125 L 99.78125 108.828125 C 99.96875 108.828125 100.125 108.984375 100.125 109.171875 L 100.125 110.058594 L 136.691406 110.058594 C 136.878906 110.058594 137.03125 110.210938 137.03125 110.402344 L 137.03125 126.328125 C 146.945312 123.820312 155.378906 121.664062 155.554688 121.617188 C 155.742188 121.570312 155.925781 121.683594 155.972656 121.867188 C 156.019531 122.050781 155.910156 122.234375 155.726562 122.285156 C 155.347656 122.382812 117.671875 132.011719 107.765625 134.269531 C 102.5625 135.453125 98.890625 137.824219 96.851562 141.308594 C 94.644531 145.085938 94.4375 150.078125 96.242188 156.140625 C 99.867188 168.316406 110.417969 198.78125 111.597656 202.183594 L 126.609375 197.800781 L 115.089844 152.636719 C 115.066406 152.535156 115.085938 152.425781 115.152344 152.339844 C 115.21875 152.257812 115.316406 152.207031 115.421875 152.207031 L 151.277344 152.207031 C 154.976562 152.207031 158.34375 152.269531 161.601562 152.324219 C 175.242188 152.570312 184.253906 152.730469 189.351562 147.683594 C 193.144531 143.929688 194.792969 137.199219 194.699219 125.859375 C 194.695312 125.671875 194.847656 125.515625 195.039062 125.511719 C 195.039062 125.511719 195.039062 125.511719 195.042969 125.511719 C 195.230469 125.511719 195.382812 125.664062 195.382812 125.855469 C 195.484375 137.394531 193.769531 144.277344 189.835938 148.171875 C 187.507812 150.476562 184.4375 151.738281 180.5625 152.40625 C 180.65625 152.445312 180.734375 152.515625 180.769531 152.617188 L 199.847656 211.367188 C 199.90625 211.546875 199.808594 211.738281 199.628906 211.796875 Z M 101.035156 80.0625 L 91.015625 84.980469 C 90.847656 85.0625 90.777344 85.269531 90.859375 85.4375 C 90.921875 85.558594 91.042969 85.628906 91.167969 85.628906 C 91.21875 85.628906 91.269531 85.621094 91.320312 85.59375 L 101.335938 80.679688 C 101.507812 80.59375 101.578125 80.390625 101.496094 80.21875 C 101.414062 80.050781 101.207031 79.980469 101.035156 80.0625 Z M 156.046875 56.054688 C 156.089844 56.203125 156.226562 56.300781 156.375 56.300781 C 156.40625 56.300781 156.441406 56.296875 156.472656 56.289062 L 171.410156 51.898438 C 171.589844 51.84375 171.695312 51.652344 171.644531 51.472656 C 171.589844 51.289062 171.398438 51.183594 171.214844 51.242188 L 156.277344 55.628906 C 156.097656 55.683594 155.992188 55.875 156.046875 56.054688 Z M 144.433594 40.320312 L 146.382812 40.265625 L 146.261719 42.625 C 146.140625 44.898438 147.175781 47.046875 149.023438 48.375 C 150.867188 49.703125 153.238281 50 155.355469 49.164062 L 158.660156 47.863281 L 158.601562 50.753906 C 158.597656 50.945312 158.746094 51.101562 158.9375 51.105469 C 158.941406 51.105469 158.941406 51.105469 158.945312 51.105469 C 159.128906 51.105469 159.28125 50.957031 159.289062 50.769531 L 159.355469 47.359375 C 159.355469 47.246094 159.300781 47.136719 159.207031 47.074219 C 159.113281 47.007812 158.992188 46.992188 158.886719 47.035156 L 155.105469 48.523438 C 153.207031 49.273438 151.082031 49.011719 149.421875 47.820312 C 147.765625 46.628906 146.839844 44.699219 146.945312 42.660156 L 147.085938 39.929688 C 147.09375 39.835938 147.054688 39.742188 146.988281 39.671875 C 146.921875 39.605469 146.816406 39.566406 146.734375 39.570312 L 145.089844 39.613281 L 147.210938 36.550781 C 147.25 36.496094 147.269531 36.4375 147.273438 36.371094 L 147.582031 30.421875 C 147.589844 30.457031 147.59375 30.488281 147.609375 30.519531 C 147.699219 30.6875 147.910156 30.753906 148.074219 30.664062 C 148.121094 30.644531 149.191406 30.101562 150.066406 31.46875 C 150.132812 31.570312 150.242188 31.625 150.355469 31.625 C 150.417969 31.625 150.480469 31.609375 150.539062 31.574219 C 150.699219 31.472656 150.746094 31.257812 150.644531 31.097656 C 149.675781 29.585938 148.332031 29.757812 147.757812 30.058594 C 147.675781 30.101562 147.617188 30.171875 147.59375 30.253906 L 147.992188 22.585938 L 152.867188 24.832031 C 152.882812 26.042969 153.214844 31.585938 157.796875 33.960938 C 157.886719 34.003906 157.992188 34.011719 158.085938 33.972656 C 158.179688 33.933594 158.253906 33.855469 158.28125 33.757812 L 159.796875 28.976562 C 160.332031 28.953125 161.734375 28.980469 162.617188 29.804688 C 163.191406 30.335938 163.457031 31.125 163.414062 32.148438 C 163.378906 32.902344 163.199219 33.644531 162.875 34.347656 C 161.882812 36.515625 162.097656 39.066406 163.4375 41.011719 C 164.714844 42.863281 166.730469 43.839844 168.957031 43.695312 C 169.167969 43.679688 169.378906 43.660156 169.589844 43.628906 L 169.738281 45.726562 C 169.75 45.914062 169.914062 46.046875 170.101562 46.042969 C 170.292969 46.03125 170.433594 45.867188 170.421875 45.679688 L 170.25 43.203125 C 170.242188 43.105469 170.195312 43.015625 170.117188 42.957031 C 170.039062 42.894531 169.941406 42.871094 169.839844 42.890625 C 169.535156 42.949219 169.222656 42.992188 168.910156 43.011719 C 166.933594 43.144531 165.136719 42.269531 164 40.621094 C 162.796875 38.875 162.605469 36.582031 163.5 34.632812 C 163.859375 33.847656 164.0625 33.019531 164.097656 32.175781 C 164.152344 30.941406 163.808594 29.976562 163.082031 29.300781 C 161.738281 28.058594 159.589844 28.300781 159.496094 28.308594 C 159.363281 28.324219 159.253906 28.417969 159.210938 28.546875 L 157.753906 33.152344 C 153.449219 30.609375 153.550781 24.679688 153.554688 24.617188 C 153.554688 24.484375 153.480469 24.355469 153.355469 24.296875 L 147.816406 21.753906 C 147.714844 21.707031 147.59375 21.710938 147.496094 21.769531 C 147.398438 21.828125 147.339844 21.933594 147.332031 22.046875 L 146.59375 36.242188 L 144.140625 39.78125 C 144.066406 39.890625 144.058594 40.027344 144.121094 40.140625 C 144.183594 40.253906 144.296875 40.320312 144.433594 40.320312 Z M 150.273438 41.09375 C 149.347656 42.371094 148.101562 42.398438 148.046875 42.398438 C 147.859375 42.402344 147.707031 42.554688 147.707031 42.742188 C 147.707031 42.933594 147.859375 43.085938 148.046875 43.085938 C 148.113281 43.085938 149.6875 43.066406 150.832031 41.496094 C 150.941406 41.34375 150.90625 41.128906 150.753906 41.019531 C 150.601562 40.90625 150.386719 40.9375 150.273438 41.09375 Z M 152.050781 77.320312 C 152.183594 77.457031 152.179688 77.671875 152.042969 77.804688 L 145.71875 83.953125 C 145.648438 84.019531 145.566406 84.050781 145.476562 84.050781 C 145.386719 84.050781 145.296875 84.015625 145.230469 83.945312 C 145.101562 83.808594 145.101562 83.59375 145.238281 83.460938 L 151.566406 77.316406 C 151.703125 77.183594 151.917969 77.1875 152.050781 77.320312 " fill-opacity="1" fill-rule="nonzero"/></g><g clip-path="url(#clip-2)"><path fill="rgb(0%, 0%, 0%)" d="M 148.992188 35.324219 C 149.285156 35.324219 149.519531 35.089844 149.519531 34.796875 C 149.519531 34.503906 149.285156 34.269531 148.992188 34.269531 C 148.699219 34.269531 148.464844 34.503906 148.464844 34.796875 C 148.464844 35.089844 148.699219 35.324219 148.992188 35.324219 Z M 186.429688 154.835938 C 168.460938 154.835938 150.714844 154.613281 144.125 154.523438 C 142.617188 154.5 141.5625 152.976562 142.128906 151.578125 C 142.964844 149.515625 144.800781 147.105469 148.816406 147.105469 C 155.847656 147.105469 157.78125 147.105469 163.054688 147.105469 C 173.773438 147.105469 176.761719 120.238281 185.726562 120.238281 C 189.417969 120.238281 193.8125 120.238281 197.679688 120.238281 C 201.542969 120.238281 209.101562 154.835938 186.429688 154.835938 " fill-opacity="1" fill-rule="nonzero"/></g></svg>